<mxfile host="app.diagrams.net" modified="2022-06-01T00:56:25.521Z" agent="5.0 (Macintosh; Intel Mac OS X 10_15_7) AppleWebKit/537.36 (KHTML, like Gecko) Chrome/101.0.0.0 Safari/537.36" etag="FnY-OJbI--aTCe8aDcNY" version="18.1.3" type="github">
  <diagram id="vMxeByeMzCUiSNfpBySE" name="Page-1">
    <mxGraphModel dx="473" dy="323" grid="1" gridSize="10" guides="1" tooltips="1" connect="1" arrows="1" fold="1" page="1" pageScale="1" pageWidth="827" pageHeight="1169" math="0" shadow="0">
      <root>
        <mxCell id="0" />
        <mxCell id="1" parent="0" />
        <mxCell id="dOUqNgxCJLWoSc9xT5iU-1" value="" style="rounded=1;whiteSpace=wrap;html=1;" vertex="1" parent="1">
          <mxGeometry x="120" y="40" width="120" height="130" as="geometry" />
        </mxCell>
        <mxCell id="dOUqNgxCJLWoSc9xT5iU-2" value="" style="endArrow=none;dashed=1;html=1;rounded=0;exitX=0.004;exitY=0.615;exitDx=0;exitDy=0;exitPerimeter=0;entryX=1.004;entryY=0.623;entryDx=0;entryDy=0;entryPerimeter=0;" edge="1" parent="1" source="dOUqNgxCJLWoSc9xT5iU-1" target="dOUqNgxCJLWoSc9xT5iU-1">
          <mxGeometry width="50" height="50" relative="1" as="geometry">
            <mxPoint x="220" y="180" as="sourcePoint" />
            <mxPoint x="240" y="120" as="targetPoint" />
          </mxGeometry>
        </mxCell>
        <mxCell id="dOUqNgxCJLWoSc9xT5iU-3" value="" style="html=1;whiteSpace=wrap;shape=isoCube2;backgroundOutline=1;isoAngle=15;fillColor=#d5e8d4;strokeColor=#82b366;" vertex="1" parent="1">
          <mxGeometry x="200" y="130" width="30" height="30" as="geometry" />
        </mxCell>
        <mxCell id="dOUqNgxCJLWoSc9xT5iU-4" value="client" style="text;html=1;align=center;verticalAlign=middle;resizable=0;points=[];autosize=1;strokeColor=none;fillColor=none;" vertex="1" parent="1">
          <mxGeometry x="160" y="135" width="40" height="20" as="geometry" />
        </mxCell>
        <mxCell id="dOUqNgxCJLWoSc9xT5iU-6" style="edgeStyle=orthogonalEdgeStyle;rounded=0;orthogonalLoop=1;jettySize=auto;html=1;entryX=0.5;entryY=0;entryDx=0;entryDy=0;entryPerimeter=0;" edge="1" parent="1" source="dOUqNgxCJLWoSc9xT5iU-5" target="dOUqNgxCJLWoSc9xT5iU-3">
          <mxGeometry relative="1" as="geometry" />
        </mxCell>
        <mxCell id="dOUqNgxCJLWoSc9xT5iU-5" value="" style="shape=image;verticalLabelPosition=bottom;labelBackgroundColor=default;verticalAlign=top;aspect=fixed;imageAspect=0;image=https://icon-library.com/images/folder-icon-files/folder-icon-files-21.jpg;" vertex="1" parent="1">
          <mxGeometry x="205" y="90" width="20" height="20" as="geometry" />
        </mxCell>
        <mxCell id="dOUqNgxCJLWoSc9xT5iU-7" value="kernel" style="text;html=1;align=center;verticalAlign=middle;resizable=0;points=[];autosize=1;strokeColor=none;fillColor=none;" vertex="1" parent="1">
          <mxGeometry x="120" y="120" width="50" height="20" as="geometry" />
        </mxCell>
        <mxCell id="dOUqNgxCJLWoSc9xT5iU-8" value="userspace" style="text;html=1;align=center;verticalAlign=middle;resizable=0;points=[];autosize=1;strokeColor=none;fillColor=none;" vertex="1" parent="1">
          <mxGeometry x="120" y="100" width="70" height="20" as="geometry" />
        </mxCell>
      </root>
    </mxGraphModel>
  </diagram>
</mxfile>
